<svg width="102" height="40" viewBox="0 0 102 40" fill="none" xmlns="http://www.w3.org/2000/svg">
<rect x="0.5" y="0.5" width="101" height="38.2449" stroke="#E6EDE6"/>
<path d="M15.8469 28.551C14.5033 28.551 13.4744 28.1684 12.7602 27.4031C12.0629 26.6378 11.7142 25.5578 11.7142 24.1633V14.5714C11.7142 13.1769 12.0629 12.0969 12.7602 11.3316C13.4744 10.5663 14.5033 10.1837 15.8469 10.1837C17.1904 10.1837 18.2108 10.5663 18.9081 11.3316C19.6224 12.0969 19.9795 13.1769 19.9795 14.5714V16.4592H17.3265V14.3929C17.3265 13.2874 16.8588 12.7347 15.9234 12.7347C14.988 12.7347 14.5204 13.2874 14.5204 14.3929V24.3673C14.5204 25.4558 14.988 26 15.9234 26C16.8588 26 17.3265 25.4558 17.3265 24.3673V21.6378H19.9795V24.1633C19.9795 25.5578 19.6224 26.6378 18.9081 27.4031C18.2108 28.1684 17.1904 28.551 15.8469 28.551Z" fill="#E6EDE6"/>
<path d="M21.6584 10.4388H25.8166C27.2622 10.4388 28.3166 10.7789 28.9799 11.4592C29.6431 12.1224 29.9748 13.1514 29.9748 14.5459V15.6429C29.9748 17.4966 29.3625 18.6701 28.138 19.1633V19.2143C28.8183 19.4184 29.2945 19.835 29.5666 20.4643C29.8557 21.0935 30.0003 21.9354 30.0003 22.9898V26.1276C30.0003 26.6378 30.0173 27.0544 30.0513 27.3776C30.0853 27.6837 30.1703 27.9898 30.3064 28.2959H27.4492C27.3472 28.0068 27.2792 27.7347 27.2452 27.4796C27.2112 27.2245 27.1941 26.7653 27.1941 26.102V22.8367C27.1941 22.0204 27.0581 21.4507 26.786 21.1276C26.5309 20.8044 26.0802 20.6429 25.4339 20.6429H24.4646V28.2959H21.6584V10.4388ZM25.485 18.0918C26.0462 18.0918 26.4629 17.9473 26.735 17.6582C27.0241 17.369 27.1686 16.8844 27.1686 16.2041V14.8265C27.1686 14.1803 27.0496 13.7126 26.8115 13.4235C26.5904 13.1344 26.2333 12.9898 25.7401 12.9898H24.4646V18.0918H25.485Z" fill="#E6EDE6"/>
<path d="M31.9472 10.4388H34.7533V28.2959H31.9472V10.4388Z" fill="#E6EDE6"/>
<path d="M40.5029 28.551C39.1424 28.551 38.1134 28.1684 37.4162 27.4031C36.7189 26.6207 36.3702 25.5068 36.3702 24.0612V23.0408H39.0233V24.2653C39.0233 25.4218 39.508 26 40.4774 26C40.9536 26 41.3107 25.8639 41.5488 25.5918C41.8039 25.3027 41.9315 24.8435 41.9315 24.2143C41.9315 23.466 41.7614 22.8112 41.4213 22.25C41.0811 21.6718 40.4519 20.983 39.5335 20.1837C38.377 19.1633 37.5692 18.2449 37.11 17.4286C36.6509 16.5952 36.4213 15.6599 36.4213 14.6224C36.4213 13.2109 36.7784 12.1224 37.4927 11.3571C38.207 10.5748 39.2444 10.1837 40.6049 10.1837C41.9485 10.1837 42.9604 10.5748 43.6407 11.3571C44.3379 12.1224 44.6866 13.2279 44.6866 14.6735V15.4133H42.0335V14.4949C42.0335 13.8827 41.9145 13.4405 41.6764 13.1684C41.4383 12.8793 41.0896 12.7347 40.6304 12.7347C39.6951 12.7347 39.2274 13.3044 39.2274 14.4439C39.2274 15.0901 39.3975 15.6939 39.7376 16.2551C40.0947 16.8163 40.7325 17.4966 41.6509 18.2959C42.8243 19.3163 43.6321 20.2432 44.0743 21.0765C44.5165 21.9099 44.7376 22.8878 44.7376 24.0102C44.7376 25.4728 44.3719 26.5952 43.6407 27.3776C42.9264 28.1599 41.8804 28.551 40.5029 28.551Z" fill="#E6EDE6"/>
<path d="M50.4321 10.4388H54.5648C55.9594 10.4388 57.0053 10.8129 57.7026 11.5612C58.3998 12.3095 58.7485 13.4065 58.7485 14.852V16.6122C58.7485 18.0578 58.3998 19.1548 57.7026 19.9031C57.0053 20.6514 55.9594 21.0255 54.5648 21.0255H53.2383V28.2959H50.4321V10.4388ZM54.5648 18.4745C55.024 18.4745 55.3641 18.3469 55.5852 18.0918C55.8233 17.8367 55.9424 17.4031 55.9424 16.7908V14.6735C55.9424 14.0612 55.8233 13.6276 55.5852 13.3724C55.3641 13.1173 55.024 12.9898 54.5648 12.9898H53.2383V18.4745H54.5648Z" fill="#E6EDE6"/>
<path d="M61.544 10.4388H65.3451L68.2532 28.2959H65.4471L64.9369 24.75V24.801H61.7481L61.2379 28.2959H58.6359L61.544 10.4388ZM64.6053 22.3776L63.3553 13.551H63.3042L62.0797 22.3776H64.6053Z" fill="#E6EDE6"/>
<path d="M73.6464 28.551C72.2859 28.551 71.2485 28.1684 70.5342 27.4031C69.8199 26.6207 69.4628 25.5068 69.4628 24.0612V10.4388H72.2689V24.2653C72.2689 24.8776 72.3879 25.3197 72.626 25.5918C72.8811 25.8639 73.2383 26 73.6975 26C74.1566 26 74.5053 25.8639 74.7434 25.5918C74.9985 25.3197 75.126 24.8776 75.126 24.2653V10.4388H77.8301V24.0612C77.8301 25.5068 77.473 26.6207 76.7587 27.4031C76.0444 28.1684 75.007 28.551 73.6464 28.551Z" fill="#E6EDE6"/>
<path d="M79.8287 10.4388H82.6348V25.7449H87.2521V28.2959H79.8287V10.4388Z" fill="#E6EDE6"/>
<path d="M88.5978 25.5918H91.3019V28.2959H88.5978V25.5918Z" fill="#E6EDE6"/>
</svg>
